<svg xmlns="http://www.w3.org/2000/svg" viewBox="0 0 973.23 116.94"><defs><style>.a{fill:#606060;}.b{fill:#ee3124;}.c{fill:#808285;}</style></defs><title>honeywell logo</title><rect class="a" x="478.72" width="1.81" height="116.55"/><path d="M15,97.3v1.35H8.35v17.9H6.78V98.65H.16V97.3Z"/><path d="M33.43,107.56h-12v9H19.82V97.3h1.59v8.88h12V97.3H35v19.25H33.43Z"/><path d="M42.67,97.3H56.14v1.35H44.21v7.53H54.66v1.38H44.21v7.64H56.42v1.35H42.67Z"/><path d="M69.59,97.3h7.29c4.45,0,6.43,2.06,6.43,5.94s-2,6.21-6.49,6.21H71.19v7.09H69.59Zm1.59,1.35v9.46H77c2.92,0,4.7-1.62,4.7-4.81s-1.54-4.65-4.81-4.65Z"/><path d="M88.29,106.93c0-7.12,2.91-9.93,8.39-9.93,5.64,0,8.44,2.8,8.44,9.93s-2.94,9.93-8.44,9.93S88.29,114,88.29,106.93Zm1.59,0c0,6.49,2.47,8.61,6.79,8.61s6.85-2.06,6.85-8.63-2.5-8.58-6.85-8.58S89.89,100.33,89.89,106.93Z"/><path d="M121.81,97.44l4.76,16.83,5.06-17h1.54l-5.86,19.25h-1.57L121,99.72l-4.7,16.83h-1.59L108.92,97.3h1.62l4.95,17,4.76-16.91Z"/><path d="M138,97.3h13.47v1.35H139.52v7.53H150v1.38H139.52v7.64h12.21v1.35H138Z"/><path d="M157.26,97.3h7.26c4.4,0,6.35,2,6.35,5.66,0,2.89-1.29,4.95-4,5.66l4.32,7.92h-1.73l-4.21-7.67a2.24,2.24,0,0,1-.44,0h-5.91v7.64h-1.59Zm1.59,1.35v8.88h5.8c2.89,0,4.65-1.48,4.65-4.51s-1.54-4.37-4.76-4.37Z"/><path d="M183.5,106.93c0-7.12,2.91-9.93,8.39-9.93,5.64,0,8.44,2.8,8.44,9.93s-2.94,9.93-8.44,9.93S183.5,114,183.5,106.93Zm1.59,0c0,6.49,2.47,8.61,6.79,8.61s6.85-2.06,6.85-8.63-2.5-8.58-6.85-8.58S185.09,100.33,185.09,106.93Z"/><path d="M207,97.3H220v1.35H208.55v7.7h10.28v1.38H208.55v8.83H207Z"/><path d="M231,106.9c0-7,3.13-10,9.38-10,3.85,0,6.35,1.26,7.64,4.34l-3.6,1.87c-.88-1.93-2-2.5-4.07-2.5-3.05,0-4.81,1.38-4.81,6.32s1.76,6.38,4.84,6.38a4.26,4.26,0,0,0,4.29-2.72l3.6,1.79c-1.4,3-4,4.54-8,4.54C234,116.94,231,113.77,231,106.9Z"/><path d="M251.83,106.9c0-6.79,3-10,9.35-10,6.57,0,9.32,3.22,9.32,10s-3,10-9.35,10C254.67,116.94,251.83,113.69,251.83,106.9Zm4.54.06c0,4.7,1.62,6.32,4.78,6.32s4.78-1.59,4.78-6.38-1.62-6.3-4.78-6.3S256.37,102.14,256.37,107Z"/><path d="M280.1,104.34l.11,12.21H276V97.3h3.55l9.4,12.84-.11-12.84h4.29v19.25h-4Z"/><path d="M303.64,104.34l.11,12.21h-4.26V97.3H303l9.4,12.84-.11-12.84h4.29v19.25h-4Z"/><path d="M323,97.3H337.8v3.55H327.43v4.21h9v3.57h-9V113h10.64v3.55H323Z"/><path d="M341.9,106.9c0-7,3.13-10,9.38-10,3.85,0,6.35,1.26,7.64,4.34l-3.6,1.87c-.88-1.93-2-2.5-4.07-2.5-3.05,0-4.81,1.38-4.81,6.32s1.76,6.38,4.84,6.38a4.26,4.26,0,0,0,4.29-2.72l3.6,1.79c-1.4,3-4,4.54-8,4.54C344.87,116.94,341.9,113.77,341.9,106.9Z"/><path d="M378.5,97.3v3.79h-5.88v15.45H368.1V101.1h-5.88V97.3Z"/><path d="M382.76,97.3h14.77v3.55H387.16v4.21h9v3.57h-9V113H397.8v3.55h-15Z"/><path d="M402.89,116.55V97.3h8.28c6,0,8.74,3,8.74,9.49s-2.91,9.76-9,9.76Zm7.64-3.63c3,0,4.84-1.51,4.84-6,0-4.21-1.57-5.94-4.45-5.94H407.4v12Z"/><path class="b" d="M33.55,61.71V34.57H19.25V61.71H0V.5H19.25V26.42H33.55V.5H52.8V61.71Z"/><path class="b" d="M100.14,57.89q-6.59,5.38-17.34,5.38v-5q3.47,0,4.77-2.61,1.91-3.82,1.91-16.25T87.37,23q-1.23-2.34-4.66-2.35t-4.62,2.43Q76,27,76,39.39t2,16.34q1.3,2.52,4.77,2.52v5Q72,63.27,65.37,57.8q-7.54-6.17-7.54-18.33,0-11.46,7-17.81,6.59-5.9,17.86-5.91t17.95,5.91q7,6.25,7,17.81Q107.68,51.72,100.14,57.89Z"/><path class="b" d="M141.58,61.71V31.37a8.14,8.14,0,0,0-.78-3.81,3.61,3.61,0,0,0-3.47-2,7.91,7.91,0,0,0-4.55,1.39,9.81,9.81,0,0,0-3.08,3.21V61.71H112.79V17.32H129.7v6.76q.17-2.17,3.38-4.42a17.31,17.31,0,0,1,10.4-2.95q10.58,0,14,8.76a16.64,16.64,0,0,1,1.13,6V61.71Z"/><path class="b" d="M187.7,42.81V36.57h7.11q0-8.15-1.21-11.62-1.48-4.16-5.55-4.16a5.74,5.74,0,0,0-5.9,4.16q-1,3-1,11.62h6.59v6.24h-6.59a25.45,25.45,0,0,1,0,3q0,5.52,1.56,8.19,2.34,4.05,8.76,4.05,6.68,0,9.88-3.29a8,8,0,0,0,2.34-5.72h8q0,4.74-4.26,8.62-6.17,5.6-19.2,5.6-11.12,0-17.37-5.8a21.78,21.78,0,0,1-6.25-11,26.55,26.55,0,0,1-.78-6.49,30.12,30.12,0,0,1,.69-6.58,21.27,21.27,0,0,1,6.07-11.08q6.24-5.89,17.43-5.88,11.79,0,18.12,6.33Q210.51,27.29,212,35a44.8,44.8,0,0,1,.52,7.8Z"/><path class="b" d="M232.79,70.73A12.82,12.82,0,0,1,228.19,76a14.49,14.49,0,0,1-8.84,3.12,12.19,12.19,0,0,1-7.72-2.43,8.09,8.09,0,0,1-3.12-6.76q0-4.08,2.6-6a7.41,7.41,0,0,1,4.42-1.3,8.29,8.29,0,0,1,4.59,1.41,5.54,5.54,0,0,1,2.6,4.84q0,3.52-2,4.75a2.21,2.21,0,0,1-.87.26h.87a6.65,6.65,0,0,0,4.42-2.08,13.19,13.19,0,0,0,3.73-7.11l.26-2.43-17.51-45h18.31l8.76,22.93,9-22.95,6.59,0Z"/><path class="b" d="M310.3,61.71H297.72l-8.41-27.57-7.37,27.57h-13.7L254.46,17.15h17.93l7.36,25.57,6.92-25.57h14.18l7.48,25.78,6.92-25.78h7Z"/><path class="b" d="M347.32,42.81V36.57h7.11q0-8.15-1.21-11.62-1.48-4.16-5.55-4.16a5.74,5.74,0,0,0-5.9,4.16q-1,3-1,11.62h6.59v6.24h-6.59a25.45,25.45,0,0,1,0,3q0,5.52,1.56,8.19,2.34,4.05,8.76,4.05,6.68,0,9.88-3.29a8,8,0,0,0,2.34-5.72h8q0,4.74-4.26,8.62-6.17,5.6-19.2,5.6-11.12,0-17.37-5.8a21.78,21.78,0,0,1-6.25-11,26.55,26.55,0,0,1-.78-6.49,30.12,30.12,0,0,1,.69-6.58,21.27,21.27,0,0,1,6.07-11.08q6.24-5.89,17.43-5.88,11.79,0,18.12,6.33,4.42,4.51,5.9,12.22a44.8,44.8,0,0,1,.52,7.8Z"/><path class="b" d="M377.14,61.71V.5h16.65V61.71Z"/><path class="b" d="M400.81,61.71V.5h16.65V61.71Z"/><path class="c" d="M546.1,48.95l.16,28.8h-4.47V40.89h5.05L561,72.42l14.11-31.53h5V77.74h-4.53l.21-28.8-13,28.8H559.1Z"/><path class="c" d="M610.68,70.21h-16.9l-2.53,7.53h-4.79l12.9-36.85h5.9l12.9,36.85h-4.95ZM595.1,66.26h14.21l-7.16-21.11Z"/><path class="c" d="M635.26,62.42,624.58,77.74h-5.21l13.27-18.85-12.42-18h5.42l9.9,14.48,9.79-14.48h5.21L638.1,58.79l13.27,19H645.9Z"/><path class="c" d="M657.84,40.89h14.69c8.48,0,12.63,4.21,12.63,11.58,0,8.11-4.53,12.37-13.16,12.37h-9.48v12.9h-4.68Zm4.68,4v16h10c4.95,0,7.95-2.74,7.95-8.21,0-4.95-2.58-7.74-7.9-7.74Z"/><path class="c" d="M697.9,77.74h-4.68V40.89h14.63c8.32,0,12.37,4,12.37,11.06,0,5.79-2.63,9.48-7.26,11.05l7.9,14.74h-5.16l-7.48-14H697.9Zm0-32.85V59.74h9.9c4.84,0,7.74-2.47,7.74-7.63,0-4.58-2.47-7.21-7.69-7.21Z"/><path class="c" d="M727.06,59.26c0-13.48,5.48-19,16.53-19,11.53,0,16.58,5.53,16.58,19s-5.53,19.11-16.58,19.11C732.32,78.37,727.06,72.74,727.06,59.26Zm4.69.05c0,11.63,4.11,15.27,11.84,15.27s11.9-3.47,11.9-15.37c0-11.58-4.16-15.16-11.9-15.16S731.74,47.42,731.74,59.32Z"/><path class="c" d="M780.59,59.26c0-13.74,5.63-19,16.58-19,6.58,0,10.9,1.9,13.42,6.95l-3.68,2.47c-2-4.26-5.05-5.63-9.74-5.63-7.58,0-11.9,3.21-11.9,15.16s4.32,15.37,11.9,15.37c4.79,0,8.16-1.58,10.58-6.16l3.47,2.37c-3,5.47-7.63,7.58-14.06,7.58C786.22,78.37,780.59,73,780.59,59.26Z"/><path class="c" d="M845.23,73.74v4H819.12V40.89h4.69V73.74Z"/><path class="c" d="M850.7,59.26c0-13.48,5.47-19,16.53-19,11.53,0,16.58,5.53,16.58,19s-5.53,19.11-16.58,19.11C856,78.37,850.7,72.74,850.7,59.26Zm4.68.05c0,11.63,4.11,15.27,11.84,15.27s11.9-3.47,11.9-15.37C879.13,47.63,875,44,867.23,44S855.38,47.42,855.38,59.32Z"/><path class="c" d="M917.87,40.89h4.68V63.26c0,9.95-5.63,15.11-15,15.11s-15-5.16-15-15.11V40.89h4.68V63.48c0,7.9,4.05,11.11,10.27,11.11s10.27-3.21,10.27-11.11Z"/><path class="c" d="M933.18,77.74V40.89h13.9c10.74,0,16,5.48,16,18.21s-5.42,18.64-16,18.64Zm13.69-4c7,0,11.48-3.47,11.48-14.48,0-10.74-4.05-14.37-11.11-14.37h-9.37V73.74Z"/><path class="c" d="M965.38,36.39h-.95V28.93h3c1.68,0,2.5.81,2.5,2.24a2.14,2.14,0,0,1-1.47,2.24l1.6,3h-1l-1.51-2.82h-2.09Zm0-6.64v3h2a1.39,1.39,0,0,0,1.57-1.54c0-.93-.5-1.46-1.55-1.46Z"/><path class="c" d="M967.23,38.75a6,6,0,1,1,6-6A6,6,0,0,1,967.23,38.75Zm0-10.44a4.44,4.44,0,1,0,4.44,4.44A4.45,4.45,0,0,0,967.23,28.31Z"/></svg>