<svg xmlns="http://www.w3.org/2000/svg" xmlns:xlink="http://www.w3.org/1999/xlink" width="24.13" height="624" viewBox="0 0 24.13 624"><svg viewBox="0 0 24 24" width="24" height="24" id="PeripheralDevices" y="0"><defs><style>.a{fill:gray}.b{fill:none}</style></defs><title>1</title><path class="a" d="M21.09 9.3h-.91V3.9a.9.9 0 0 0-.91-.9H2.91a.9.9 0 0 0-.91.9v9.9a.9.9 0 0 0 .91.9h1.82v1.8a.9.9 0 0 0 .91.9h9.09v2.7a.9.9 0 0 0 .91.9h5.45a.9.9 0 0 0 .91-.9v-9.9a.9.9 0 0 0-.91-.9zm-6.36 6.3H6.55v-.9h8.18zm0-5.4v2.7H3.82V4.8h14.54v4.5h-2.72a.9.9 0 0 0-.91.9zm5.5 9h-3.68v-8.1h3.68z"></path><path class="a" d="M17.45 16.5h1.82v1.8h-1.82z"></path><path class="b" d="M0 0h24v24H0z"></path></svg><svg viewBox="0 0 24 24" width="24" height="24" id="VisualManagement" y="24"><defs><style>.cls-1{fill:#909090}.cls-2{fill:none}</style></defs><title>Asset 9</title><g id="Layer_2" data-name="Layer 2"><g id="Layer_1-2" data-name="Layer 1"><path class="cls-1" d="M17.36 5.32A6 6 0 0 0 7.1 4.54L2 6v16l7-2 6 2 7-2V4zM12 4a4 4 0 0 1 2.82 6.84L12 13.66l-2.82-2.82A4 4 0 0 1 12 4zm8 14.47l-5 1.43-5.42-1.8-.58-.19-.59.17L4 19.34V7.5l2.1-.59a6 6 0 0 0 1.66 5.35L12 16.49l4.23-4.23a5.92 5.92 0 0 0 1.71-5L20 6.65z"></path><circle class="cls-1" cx="11.99" cy="8" r="2"></circle><path class="cls-2" d="M0 0h24v24H0z"></path></g></g></svg><svg viewBox="0 0 24 24" width="24" height="24" id="access" y="48"><defs><style>.a,.b{fill:gray}.a{fill-rule:evenodd}.c{fill:none}</style></defs><title>1</title><path class="a" d="M19.07 4.93a10 10 0 1 0 0 14.14 10 10 0 0 0 0-14.14zm-1.42 12.73a8 8 0 1 1 0-11.32 8 8 0 0 1 0 11.32z"></path><path class="b" d="M12 8a1 1 0 1 1-1 1 1 1 0 0 1 1-1m0-2a3 3 0 1 0 3 3 3 3 0 0 0-3-3zM17.5 20h-2v-2.7a2.19 2.19 0 0 0-2.3-2.3h-2.4a2.19 2.19 0 0 0-1.64.59 2.7 2.7 0 0 0-.66 1.7V20h-2v-2.7a4.62 4.62 0 0 1 1.23-3.12A4.13 4.13 0 0 1 10.8 13h2.4a4.18 4.18 0 0 1 4.3 4.3z"></path><path class="c" d="M0 0h24v24H0z"></path></svg><svg viewBox="0 0 24 24" width="24" height="24" id="access_group" y="72"><defs><style>.a,.b{fill:gray}.a{fill-rule:evenodd}.c{fill:none}</style></defs><title>1</title><path class="a" d="M19.07 4.93a10 10 0 1 0 0 14.14 10 10 0 0 0 0-14.14zm-1.42 12.73a8 8 0 1 1 0-11.32 8 8 0 0 1 0 11.32z"></path><path class="b" d="M12 8a1 1 0 1 1-1 1 1 1 0 0 1 1-1m0-2a3 3 0 1 0 3 3 3 3 0 0 0-3-3zM17.5 20h-2v-2.7a2.19 2.19 0 0 0-2.3-2.3h-2.4a2.19 2.19 0 0 0-1.64.59 2.7 2.7 0 0 0-.66 1.7V20h-2v-2.7a4.62 4.62 0 0 1 1.23-3.12A4.13 4.13 0 0 1 10.8 13h2.4a4.18 4.18 0 0 1 4.3 4.3z"></path><path class="c" d="M0 0h24v24H0z"></path></svg><svg viewBox="0 0 24 24" width="24" height="24" id="accounts" y="96"><defs><style>.cls-1{fill:#909090}.cls-2{fill:none}</style></defs><title>Asset 3</title><g id="Layer_2" data-name="Layer 2"><g id="Layer_1-2" data-name="Layer 1"><path class="cls-1" d="M22 5h-8V3H2v18h20V9zM4 5h8v2h8v2H4zm16 14H4v-8h16z"></path><path class="cls-2" d="M0 0h24v24H0z"></path></g></g></svg><svg viewBox="0 0 24 24" width="24" height="24" id="alarms" y="120"><defs><style>.cls-1{fill:#909090}.cls-2{fill:none}</style></defs><title>Asset 8</title><g id="Layer_2" data-name="Layer 2"><g id="Layer_1-2" data-name="Layer 1"><path class="cls-1" d="M18 11V8A6 6 0 1 0 6 8v3a3 3 0 0 1-3 3v5.1h5.16A4 4 0 0 0 12 22a3.86 3.86 0 0 0 3.84-2.9H21V14a2.94 2.94 0 0 1-3-3zm-7.69 8.1h3.39a2.07 2.07 0 0 1-3.39 0zm8.69-2H5v-1.6A4.3 4.3 0 0 0 8 11V8a4 4 0 1 1 8 0v3a5.28 5.28 0 0 0 3 4.6z"></path><path class="cls-2" d="M0 0h24v24H0z"></path></g></g></svg><svg viewBox="0 0 24 24" width="24" height="24" id="area" y="144"><defs><style>.a{fill:gray}.b{fill:none}</style></defs><title>1</title><path class="a" d="M2.02 6.01h1.99v-2h2V2.02H2.02v3.99zM20 6.01h2V2.02h-4v1.99h2v2zM2.02 21.98h3.99v-1.99h-2v-2H2.02v3.99zM2 8h2v3H2zM2 12.99h2v3H2zM20 8h2v3h-2zM8 2h3v2H8zM13 2h3v2h-3zM8 20h3v2H8zM13 13h9v9h-9zm7 2h-5v5h5z"></path><path class="b" d="M0 0h24v24H0z"></path></svg><svg viewBox="0 0 24 24" width="24" height="24" id="cards" y="168"><defs><style>.a{fill:gray}.b{fill:none}</style></defs><title>1</title><path class="a" d="M19 7V3H1v14h5v4h17V7zM3 5h14v2H3zm0 4h14v6H3zm18 10H8v-2h11V9h2z"></path><path class="b" d="M0 0h24v24H0z"></path></svg><svg viewBox="0 0 24.13 24.13" width="24.13" height="24.13" id="company" y="192"><defs><style>.cls-1{fill:#909090}.cls-2{fill:none}</style></defs><title>Asset 10</title><g id="Layer_2" data-name="Layer 2"><g id="Layer_1-2" data-name="Layer 1"><path class="cls-1" d="M17 8.12V2L3 2.11l.1 18v2h2l10-.05h6L21 8.1zm-1.89 11.93l-10 .05L5 4.1 15 4zm4 0h-2l-.05-9.92h2z"></path><path class="cls-1" transform="rotate(-.31 9.221 7.418)" d="M7.04 6.07h6v2h-6z"></path><path class="cls-1" transform="rotate(-.31 9.211 11.114)" d="M7.06 10.07h6v2h-6z"></path><path class="cls-1" transform="rotate(-.31 11.05 14.816)" d="M7.08 14.07h6v2h-6z"></path><path class="cls-1" transform="rotate(-.31 11.04 18.512)" d="M8.1 18.06h4v2h-4z"></path><path class="cls-2" transform="rotate(-.31 12.903 12.973)" d="M.07.07h24v24h-24z"></path></g></g></svg><svg viewBox="0 0 24 24" width="24" height="24" id="controller" y="217"><defs><style>.a{fill:gray}.b{fill:none}</style></defs><title>1</title><path class="a" d="M18 2H6a3 3 0 0 0-3 3v14a3 3 0 0 0 3 3h12a3 3 0 0 0 3-3V5a3 3 0 0 0-3-3zm1 17a1 1 0 0 1-1 1H6a1 1 0 0 1-1-1V5a1 1 0 0 1 1-1h12a1 1 0 0 1 1 1z"></path><path class="a" d="M7 18h10V6H7zM9 8h6v8H9z"></path><path class="b" d="M0 0h24v24H0z"></path></svg><svg id="controller_offline" data-name="Layer 1" viewBox="0 0 23.04 22.98" width="23.04" height="22.98" y="241"><defs><style>.cls-1{fill:#8f8f8f}</style></defs><title>Controller_offline</title><path class="cls-1" d="M8.24 4l-2-2H18a3 3 0 0 1 3 3v11.74l-2-2V5a1 1 0 0 0-1-1z" transform="translate(-.5 -.5)"></path><path class="cls-1" d="M16.49 12.24V5.49H9.74l2 2h2.75v2.75l2 2z"></path><path class="cls-1" d="M21 19.52l-2-1.95-2-2-2-2L9.41 8l-2-2-1.87-1.89L4.1 2.68 1.91.5.5 1.91l2.56 2.57A2.31 2.31 0 0 0 3 5v14a3 3 0 0 0 3 3h12a2.92 2.92 0 0 0 1.89-.7l2.18 2.18 1.47-1.41zM9 10.4l5.59 5.6H9zm9 9.6H6a1 1 0 0 1-1-1V6.4l2 2V18h9.59l1.86 1.87A1 1 0 0 1 18 20z" transform="translate(-.5 -.5)"></path></svg><svg id="customeroverview" data-name="Layer 1" viewBox="0 0 24 24" width="24" height="24" y="264"><defs><style>.cls-1{fill:gray}.cls-2{fill:none}</style></defs><title>Site overview</title><path class="cls-1" d="M10 5h12v2H10zM10 9h12v2H10zM10 13h12v2H10zM10 17h12v2H10zM8 19H2v-6h6zm-4-2h2v-2H4zM8 11H2V5h6zM4 9h2V7H4z"></path><path class="cls-2" d="M0 0h24v24H0z"></path></svg><svg viewBox="0 0 24 24" width="24" height="24" id="dashboard" y="288"><defs><style>.cls-1{fill:gray}.cls-2{fill:none}</style></defs><title>Asset 2</title><g id="Layer_2" data-name="Layer 2"><g id="Layer_1-2" data-name="Layer 1"><path class="cls-1" d="M11 22H2v-9h9zm-7-2h5v-5H4zM22 22h-9v-9h9zm-7-2h5v-5h-5zM11 11H2V2h9zM4 9h5V4H4zM22 11h-9V2h9zm-7-2h5V4h-5z"></path><path class="cls-2" d="M0 0h24v24H0z"></path></g></g></svg><svg viewBox="0 0 24 24" width="24" height="24" id="delete" y="312"><defs><style>.a{fill:none}.b{fill:gray}</style></defs><title>1</title><path class="a" d="M0 0h24v24H0z"></path><path class="b" d="M21 4h-4.5V2h-9v2H3v2h2v16h14V6h2zm-4 16H7V7.5h10z"></path><path class="b" d="M11.5 9h1v9h-1zM13.5 9h1v9h-1zM9.5 9h1v9h-1z"></path></svg><svg viewBox="0 0 24 24" width="24" height="24" id="download" y="336"><defs><style>.a{fill:none}.b{fill:#a0a0a0}</style></defs><title>1</title><path class="a" d="M0 0h24v24H0z"></path><path class="b" d="M20 12.51v5.71H4v-5.71H2v8h20v-8h-2z"></path><path class="b" d="M16.79 11.22l-1.41-1.41L13 12.18V4h-2v8.18L8.62 9.81l-1.41 1.41L12 16l4.79-4.78z"></path><path class="a" d="M0 0h24v24H0z"></path></svg><svg viewBox="0 0 24 24" width="24" height="24" id="firmwaremgmt" y="360"><defs><style>.cls-1{fill:none}.cls-2{fill:#909090}</style></defs><title>Asset 6</title><g id="Layer_2" data-name="Layer 2"><g id="Layer_1-2" data-name="Layer 1"><path class="cls-1" d="M0 0h24v24H0z"></path><path class="cls-2" d="M15 8.93V15H9V9h6m2-2H7l.07 10H17V6.92z"></path><path class="cls-2" transform="rotate(-.34 8.366 20.247)" d="M7.02 19.02h2.01v2.01H7.02z"></path><path class="cls-2" transform="rotate(-.34 11.736 20.257)" d="M11.03 18.99h2.01V21h-2.01z"></path><path class="cls-2" transform="rotate(-.34 16.792 20.272)" d="M15.07 18.97h2.01v2.01h-2.01z"></path><path class="cls-2" transform="rotate(-.34 8.416 3.395)" d="M6.93 3.02h2.01v2.01H6.93z"></path><path class="cls-2" transform="translate(-.02 .07)" d="M10.93 3h2.01v2.01h-2.01z"></path><path class="cls-2" transform="rotate(-.34 16.842 3.42)" d="M14.97 2.98h2.01v2.01h-2.01z"></path><path class="cls-2" transform="rotate(-90.6 19.95 15.98)" d="M19.02 14.97h2.01v2.01h-2.01z"></path><path class="cls-2" transform="rotate(-90.34 20 11.97)" d="M18.99 10.97H21v2.01h-2.01z"></path><path class="cls-2" transform="rotate(-90.34 19.972 7.931)" d="M18.97 6.93h2.01v2.01h-2.01z"></path><path class="cls-2" transform="rotate(-90.34 4.025 16.07)" d="M3.02 15.07h2.01v2.01H3.02z"></path><path class="cls-2" transform="rotate(-90.34 4.002 12.066)" d="M3 11.06h2.01v2.01H3z"></path><path class="cls-2" transform="rotate(-90.34 3.98 8.023)" d="M2.98 7.02h2.01v2.01H2.98z"></path></g></g></svg><svg viewBox="0 0 24 24" width="24" height="24" id="floorplan" y="384"><defs><style>.a{fill:gray}.b{fill:none}</style></defs><title>1</title><path class="a" d="M8 2v6H2v14h20V2zm12 18h-8v-5.95h4V12h-6v8H4V10h6V4h10z"></path><path class="b" d="M0 0h24v24H0z"></path></svg><svg id="people" viewBox="0 0 24 24" width="24" height="24" y="408"><style>.st0{fill:gray}.st1{fill:none}</style><title>1</title><path class="st0" d="M16.5 11c-1.7 0-3.4.8-4.5 2.3-1.1-1.5-2.8-2.3-4.5-2.3C4.8 11 2 12.9 2 16.5V19h2v-2.5C4 14.2 5.8 13 7.5 13s3.5 1.2 3.5 3.5V21h2v-4.5c0-2.3 1.8-3.5 3.5-3.5s3.5 1.2 3.5 3.5V19h2v-2.5c0-3.6-2.8-5.5-5.5-5.5zM7.5 10C9.4 10 11 8.4 11 6.5S9.4 3 7.5 3 4 4.6 4 6.5 5.6 10 7.5 10zm0-5C8.3 5 9 5.7 9 6.5S8.3 8 7.5 8 6 7.3 6 6.5 6.7 5 7.5 5zM16.5 10c1.9 0 3.5-1.6 3.5-3.5S18.4 3 16.5 3 13 4.6 13 6.5s1.6 3.5 3.5 3.5zm0-5c.8 0 1.5.7 1.5 1.5S17.3 8 16.5 8 15 7.3 15 6.5 15.7 5 16.5 5z"></path><path class="st1" d="M0 0h24v24H0z"></path></svg><svg viewBox="0 0 24 24" width="24" height="24" id="print" y="432"><defs><style>.a{fill:#b0b0b0}.b{fill:none}</style></defs><title>1</title><path class="a" d="M19 6.68v-5H5v5H2v10h3v5h14v-5h3v-10zm-12-3h10v3H7zm10 16H7v-5h10zm3-5h-1v-2H5v2H4v-6h16z"></path><path class="a" d="M9 15.68h6v1H9zM9 17.68h6v1H9z"></path><path class="b" d="M0 0h24v24H0z"></path></svg><svg viewBox="0 0 24 24" width="24" height="24" id="reports" y="456"><defs><style>.cls-1{fill:#909090}.cls-2{fill:none}</style></defs><title>Asset 5</title><g id="Layer_2" data-name="Layer 2"><g id="Layer_1-2" data-name="Layer 1"><path class="cls-1" d="M15.58 3.9l-.37-1.8h-6l-.36 1.8H4v18h16v-18zm-4.72.19h2.72l.2 1h-3.13zM18 19.9H6v-14h2.45l-.24 1.2h8L16 5.9h2z"></path><path class="cls-1" d="M8 8.9h8v2H8zM8 12.9h8v2H8z"></path><path class="cls-2" d="M0 0h24v24H0z"></path></g></g></svg><svg viewBox="0 0 24 24" width="24" height="24" id="rules" y="480"><defs><style>.cls-1{fill:#909090}.cls-2{fill:none}</style></defs><title>Asset 4</title><g id="Layer_2" data-name="Layer 2"><g id="Layer_1-2" data-name="Layer 1"><path class="cls-1" d="M19 16a3 3 0 0 0-2.81 2H6.51a2.5 2.5 0 0 1 0-5h2.7a3 3 0 0 0 5.63 0h2.7A4.44 4.44 0 0 0 22 8.51 4.41 4.41 0 0 0 17.49 4H7.82a3 3 0 1 0 0 2h9.68A2.43 2.43 0 0 1 20 8.51 2.43 2.43 0 0 1 17.52 11h-2.7a3 3 0 0 0-5.63 0H6.48a4.5 4.5 0 0 0 0 9h9.67A3 3 0 1 0 19 16zM5 6a1 1 0 1 1 1-1 1 1 0 0 1-1 1zm7 5a1 1 0 1 1-1 1 1 1 0 0 1 1-1zm7 9a1 1 0 1 1 1-1 1 1 0 0 1-1 1z"></path><path class="cls-2" d="M0 0h24v24H0z"></path></g></g></svg><svg viewBox="0 0 24 24" width="24" height="24" id="schedule" y="504"><defs><style>.a{fill:gray}.b{fill:none}</style></defs><title>1</title><path class="a" d="M13.98 2.01h2v2h-2zM5.99 2.01h2v2h-2zM9.98 19.01H1.99v-15h17.99v6.08h-2V6.01h-14v11h6v2z"></path><path class="a" d="M13.602 15.027l1.06-1.06 2.95 2.948-1.061 1.06z"></path><path class="a" d="M13.61 15.027l2.828-2.829 1.06 1.061-2.828 2.829z"></path><path class="a" d="M18.55 11.45a5 5 0 1 1-7.07 0 5 5 0 0 1 7.07 0M20 10a7 7 0 1 0 0 9.9 7 7 0 0 0 0-9.9z"></path><path class="a" d="M2.98 8.01h12.03v2H2.98z"></path><path class="b" d="M0 0h24v24H0z"></path></svg><svg viewBox="0 0 24 24" width="24" height="24" id="search" y="528"><defs><style>.a{fill:#a0a0a0}.b{fill:none}</style></defs><title>1</title><path class="a" d="M2 10a8 8 0 0 0 12.87 6.3l5.72 5.7L22 20.59l-5.72-5.72A8 8 0 1 0 2 10zm2 0a6 6 0 1 1 6 6 6 6 0 0 1-6-6z"></path><path class="b" d="M24 24H0V0h24z"></path></svg><svg viewBox="0 0 24 24" width="24" height="24" id="sites" y="552"><defs><style>.a{fill:gray}.b{fill:none}</style></defs><title>1</title><path class="a" d="M17 8.08V2H3v20h18V8.08zM15 20H5V4h10zm4 0h-2v-9.92h2z"></path><path class="a" d="M7 6h6v2H7zM7 9.99h6v2H7zM7 13.99h6v2H7zM8 17.99h4v2H8z"></path><path class="b" d="M0 0h24v24H0z"></path></svg><svg viewBox="0 0 24 24" width="24" height="24" id="users" y="576"><defs><style>.a,.b{fill:gray}.a{fill-rule:evenodd}.c{fill:none}</style></defs><title>1</title><path class="a" d="M19.07 4.93a10 10 0 1 0 0 14.14 10 10 0 0 0 0-14.14zm-1.42 12.73a8 8 0 1 1 0-11.32 8 8 0 0 1 0 11.32z"></path><path class="b" d="M12 8a1 1 0 1 1-1 1 1 1 0 0 1 1-1m0-2a3 3 0 1 0 3 3 3 3 0 0 0-3-3zM17.5 20h-2v-2.7a2.19 2.19 0 0 0-2.3-2.3h-2.4a2.19 2.19 0 0 0-1.64.59 2.7 2.7 0 0 0-.66 1.7V20h-2v-2.7a4.62 4.62 0 0 1 1.23-3.12A4.13 4.13 0 0 1 10.8 13h2.4a4.18 4.18 0 0 1 4.3 4.3z"></path><path class="c" d="M0 0h24v24H0z"></path></svg><svg viewBox="0 0 24 24" width="24" height="24" id="viewer" y="600"><defs><style>.cls-1{fill:#909090}.cls-2{fill:none}</style></defs><title>Asset 7</title><g id="Layer_2" data-name="Layer 2"><g id="Layer_1-2" data-name="Layer 1"><path class="cls-1" d="M18 7.94V5H2v14h16v-2.94L22 18V6zm2 5.45v1.39l-4-1.91V17H4V7h12v4.12l4-1.91v4.18z"></path><path class="cls-2" d="M0 0h24v24H0z"></path></g></g></svg></svg>