<?xml version="1.0" encoding="utf-8"?>
<!-- Generator: Adobe Illustrator 21.1.0, SVG Export Plug-In . SVG Version: 6.00 Build 0)  -->
<svg version="1.1" id="Layer_1" xmlns="http://www.w3.org/2000/svg" xmlns:xlink="http://www.w3.org/1999/xlink" x="0px" y="0px"
	 viewBox="0 0 107.9 33.2" style="enable-background:new 0 0 107.9 33.2;" xml:space="preserve">
<style type="text/css">
	.st0{fill:#F0F0F0;}
</style>
<g>
	<polygon class="st0" points="9.2,16.9 14.1,16.9 14.1,1.3 9.2,1.3 9.2,7.9 5.6,7.9 5.6,1.3 0.7,1.3 0.7,16.9 5.6,16.9 5.6,10 
		9.2,10 	"/>
	<path class="st0" d="M21.7,5.2c-1.9,0-3.4,0.5-4.5,1.5c-1.2,1.1-1.8,2.6-1.8,4.5c0,2.1,0.6,3.6,1.9,4.7c1.1,0.9,2.6,1.4,4.4,1.4
		c1.8,0,3.3-0.5,4.4-1.4c1.3-1,1.9-2.6,1.9-4.7c0-2-0.6-3.5-1.8-4.5C25.2,5.7,23.6,5.2,21.7,5.2z M22.9,15.3
		c-0.2,0.4-0.6,0.7-1.2,0.7c-0.6,0-1-0.2-1.2-0.6c-0.3-0.7-0.5-2-0.5-4.1c0-2.1,0.2-3.5,0.5-4.1c0.2-0.4,0.6-0.6,1.2-0.6
		c0.6,0,1,0.2,1.2,0.6c0.4,0.7,0.5,2,0.5,4.1C23.4,13.3,23.3,14.7,22.9,15.3z"/>
	<path class="st0" d="M36.5,8.2c0.1,0.2,0.2,0.6,0.2,1v7.7H41V9.2c0-0.5-0.1-1-0.3-1.5c-0.6-1.5-1.8-2.2-3.5-2.2
		c-1.1,0-2,0.2-2.6,0.7c-0.5,0.4-0.8,0.8-0.9,1.1V5.6h-4.3v11.3h4.3v-8c0.2-0.3,0.4-0.6,0.8-0.8c0.3-0.2,0.7-0.4,1.2-0.4
		C36,7.7,36.3,7.9,36.5,8.2z"/>
	<path class="st0" d="M53.3,15.8c0.7-0.7,1.1-1.4,1.1-2.2h-2c0,0.6-0.2,1-0.6,1.5c-0.5,0.6-1.4,0.8-2.5,0.8c-1.1,0-1.8-0.3-2.2-1
		c-0.3-0.5-0.4-1.1-0.4-2.1c0-0.4,0-0.6,0-0.8h1.7h6.3c0-0.9,0-1.5-0.1-2C54.3,8.8,53.8,7.7,53,7c-1.1-1.1-2.6-1.6-4.6-1.6
		c-1.9,0-3.4,0.5-4.4,1.5c-0.8,0.7-1.3,1.7-1.5,2.8c-0.1,0.5-0.2,1.1-0.2,1.7c0,0.6,0.1,1.1,0.2,1.6c0.3,1.2,0.8,2.1,1.6,2.8
		c1.1,1,2.5,1.5,4.4,1.5C50.7,17.3,52.3,16.8,53.3,15.8z M46.9,7.5c0.2-0.7,0.7-1.1,1.5-1.1c0.7,0,1.2,0.4,1.4,1.1
		c0.2,0.6,0.3,1.6,0.3,2.9h-1.8h-1.7C46.7,9,46.8,8,46.9,7.5z"/>
	<path class="st0" d="M65.2,5.6l-1.7,0l-2.3,5.8l-2.2-5.8h-4.6L58.9,17l-0.1,0.6c-0.2,0.8-0.5,1.4-0.9,1.8c-0.4,0.4-0.8,0.5-1.1,0.5
		c-0.1,0-0.2,0-0.2,0c0.1,0,0.2,0,0.2-0.1c0.3-0.2,0.5-0.6,0.5-1.2c0-0.5-0.2-0.9-0.7-1.2c-0.4-0.2-0.8-0.4-1.2-0.4
		c-0.4,0-0.8,0.1-1.1,0.3c-0.4,0.3-0.7,0.8-0.7,1.5c0,0.7,0.3,1.3,0.8,1.7c0.5,0.4,1.2,0.6,2,0.6c0.8,0,1.5-0.3,2.2-0.8
		c0.6-0.4,1-0.9,1.2-1.3L65.2,5.6z"/>
	<polygon class="st0" points="79,12.1 77.1,5.6 73.5,5.6 71.7,12 69.8,5.6 65.3,5.6 68.8,16.9 72.3,16.9 74.1,9.9 76.3,16.9 
		79.5,16.9 82.5,5.6 80.7,5.6 	"/>
	<path class="st0" d="M84.6,15.8c1.1,1,2.5,1.5,4.4,1.5c2.2,0,3.8-0.5,4.9-1.4c0.7-0.7,1.1-1.4,1.1-2.2h-2c0,0.6-0.2,1-0.6,1.5
		c-0.5,0.6-1.4,0.8-2.5,0.8c-1.1,0-1.8-0.3-2.2-1c-0.3-0.5-0.4-1.1-0.4-2.1c0-0.4,0-0.6,0-0.8h1.7h6.3c0-0.9,0-1.5-0.1-2
		c-0.2-1.3-0.7-2.3-1.5-3.1c-1.1-1.1-2.6-1.6-4.6-1.6c-1.9,0-3.4,0.5-4.4,1.5c-0.8,0.7-1.3,1.7-1.5,2.8c-0.1,0.5-0.2,1.1-0.2,1.7
		c0,0.6,0.1,1.1,0.2,1.6C83.3,14.2,83.8,15.1,84.6,15.8z M87.4,7.5c0.2-0.7,0.7-1.1,1.5-1.1c0.7,0,1.2,0.4,1.4,1.1
		c0.2,0.6,0.3,1.6,0.3,2.9h-1.8h-1.7C87.2,9,87.3,8,87.4,7.5z"/>
	<rect x="96.4" y="1.3" class="st0" width="4.2" height="15.5"/>
	<rect x="102.4" y="1.3" class="st0" width="4.2" height="15.5"/>
	<polygon class="st0" points="0.7,26.3 2.3,26.3 2.3,30.8 2.7,30.8 2.7,26.3 4.4,26.3 4.4,25.9 0.7,25.9 	"/>
	<polygon class="st0" points="9.1,28.2 6.1,28.2 6.1,25.9 5.6,25.9 5.6,30.8 6.1,30.8 6.1,28.5 9.1,28.5 9.1,30.8 9.5,30.8 
		9.5,25.9 9.1,25.9 	"/>
	<polygon class="st0" points="11.8,28.5 14.5,28.5 14.5,28.2 11.8,28.2 11.8,26.3 14.9,26.3 14.9,25.9 11.4,25.9 11.4,30.8 
		14.9,30.8 14.9,30.5 11.8,30.5 	"/>
	<path class="st0" d="M20.1,25.9h-1.8v4.9h0.4V29h1.4c1.1,0,1.6-0.6,1.6-1.6C21.8,26.5,21.3,25.9,20.1,25.9z M20.2,28.7h-1.5v-2.4
		h1.5c0.8,0,1.2,0.4,1.2,1.2C21.3,28.3,20.9,28.7,20.2,28.7z"/>
	<path class="st0" d="M25.1,25.9c-1.4,0-2.1,0.7-2.1,2.5c0,1.8,0.7,2.5,2.1,2.5c1.4,0,2.1-0.7,2.1-2.5
		C27.3,26.6,26.6,25.9,25.1,25.9z M25.1,30.6c-1.1,0-1.7-0.5-1.7-2.2c0-1.7,0.6-2.2,1.7-2.2c1.1,0,1.7,0.5,1.7,2.2
		C26.9,30.1,26.2,30.6,25.1,30.6z"/>
	<polygon class="st0" points="32.7,30.3 31.5,26 31.1,26 29.9,30.3 28.7,25.9 28.2,25.9 29.7,30.8 30.1,30.8 31.3,26.6 32.5,30.8 
		32.9,30.8 34.4,25.9 34,25.9 	"/>
	<polygon class="st0" points="36,28.5 38.7,28.5 38.7,28.2 36,28.2 36,26.3 39,26.3 39,25.9 35.6,25.9 35.6,30.8 39.1,30.8 
		39.1,30.5 36,30.5 	"/>
	<path class="st0" d="M44,27.4c0-0.9-0.5-1.4-1.6-1.4h-1.8v4.9h0.4v-1.9h1.5c0,0,0.1,0,0.1,0l1.1,2H44l-1.1-2
		C43.6,28.6,44,28.1,44,27.4z M42.4,28.5h-1.5v-2.3h1.4c0.8,0,1.2,0.4,1.2,1.1C43.6,28.2,43.1,28.5,42.4,28.5z"/>
	<path class="st0" d="M49.3,25.9c-1.4,0-2.1,0.7-2.1,2.5c0,1.8,0.7,2.5,2.1,2.5c1.4,0,2.1-0.7,2.1-2.5
		C51.4,26.6,50.7,25.9,49.3,25.9z M49.3,30.6c-1.1,0-1.7-0.5-1.7-2.2c0-1.7,0.6-2.2,1.7-2.2c1.1,0,1.7,0.5,1.7,2.2
		C51,30.1,50.4,30.6,49.3,30.6z"/>
	<polygon class="st0" points="53.1,30.8 53.5,30.8 53.5,28.6 56.1,28.6 56.1,28.2 53.5,28.2 53.5,26.3 56.4,26.3 56.4,25.9 
		53.1,25.9 	"/>
	<path class="st0" d="M61.6,30c-0.8,0-1.2-0.4-1.2-1.6c0-1.3,0.4-1.6,1.2-1.6c0.5,0,0.8,0.1,1,0.6l0.9-0.5c-0.3-0.8-1-1.1-1.9-1.1
		c-1.6,0-2.4,0.8-2.4,2.5c0,1.8,0.8,2.6,2.3,2.6c1,0,1.7-0.4,2-1.2l-0.9-0.5C62.5,29.8,62.1,30,61.6,30z"/>
	<path class="st0" d="M66.9,25.8c-1.6,0-2.4,0.8-2.4,2.5c0,1.7,0.7,2.6,2.4,2.6c1.6,0,2.4-0.8,2.4-2.5
		C69.2,26.7,68.5,25.8,66.9,25.8z M66.9,30c-0.8,0-1.2-0.4-1.2-1.6c0-1.2,0.4-1.6,1.2-1.6c0.8,0,1.2,0.4,1.2,1.6
		C68.1,29.6,67.7,30,66.9,30z"/>
	<polygon class="st0" points="73.9,29.2 71.5,25.9 70.6,25.9 70.6,30.8 71.7,30.8 71.7,27.7 74,30.8 75,30.8 75,25.9 73.9,25.9 	"/>
	<polygon class="st0" points="79.9,29.2 77.5,25.9 76.6,25.9 76.6,30.8 77.7,30.8 77.6,27.7 79.9,30.8 80.9,30.8 80.9,25.9 
		79.8,25.9 	"/>
	<polygon class="st0" points="83.7,28.8 85.9,28.8 85.9,27.9 83.7,27.9 83.7,26.8 86.3,26.8 86.3,25.9 82.6,25.9 82.6,30.8 
		86.4,30.8 86.4,29.9 83.7,29.9 	"/>
	<path class="st0" d="M89.7,30c-0.8,0-1.2-0.4-1.2-1.6c0-1.3,0.4-1.6,1.2-1.6c0.5,0,0.8,0.1,1,0.6l0.9-0.5c-0.3-0.8-1-1.1-1.9-1.1
		c-1.6,0-2.4,0.8-2.4,2.5c0,1.8,0.8,2.6,2.3,2.6c1,0,1.7-0.4,2-1.2l-0.9-0.5C90.6,29.8,90.2,30,89.7,30z"/>
	<polygon class="st0" points="92.5,26.9 94,26.9 94,30.8 95.1,30.8 95.1,26.9 96.6,26.9 96.6,25.9 92.5,25.9 	"/>
	<polygon class="st0" points="98.8,28.8 101.1,28.8 101.1,27.9 98.8,27.9 98.8,26.8 101.5,26.8 101.5,25.9 97.7,25.9 97.7,30.8 
		101.5,30.8 101.5,29.9 98.8,29.9 	"/>
	<path class="st0" d="M104.9,25.9h-2.1v4.9h2c1.6,0,2.3-0.8,2.3-2.5C107.1,26.7,106.4,25.9,104.9,25.9z M104.8,29.9H104v-3.1h0.9
		c0.7,0,1.1,0.4,1.1,1.5C106,29.5,105.5,29.9,104.8,29.9z"/>
</g>
</svg>
