<svg xmlns="http://www.w3.org/2000/svg" xmlns:xlink="http://www.w3.org/1999/xlink" width="24.13" height="217" viewBox="0 0 24.13 217"><svg viewBox="0 0 24.13 24.13" width="24.13" height="24.13" id="MyCompany" y="0"><defs><style>.cls-1{fill:#909090}.cls-2{fill:none}</style></defs><title>Asset 10</title><g id="Layer_2" data-name="Layer 2"><g id="Layer_1-2" data-name="Layer 1"><path class="cls-1" d="M17 8.12V2L3 2.11l.1 18v2h2l10-.05h6L21 8.1zm-1.89 11.93l-10 .05L5 4.1 15 4zm4 0h-2l-.05-9.92h2z"></path><path class="cls-1" transform="rotate(-.31 9.221 7.418)" d="M7.04 6.07h6v2h-6z"></path><path class="cls-1" transform="rotate(-.31 9.211 11.114)" d="M7.06 10.07h6v2h-6z"></path><path class="cls-1" transform="rotate(-.31 11.05 14.816)" d="M7.08 14.07h6v2h-6z"></path><path class="cls-1" transform="rotate(-.31 11.04 18.512)" d="M8.1 18.06h4v2h-4z"></path><path class="cls-2" transform="rotate(-.31 12.903 12.973)" d="M.07.07h24v24h-24z"></path></g></g></svg><svg viewBox="0 0 24 24" width="24" height="24" id="VisualManagment" y="25"><defs><style>.cls-1{fill:#909090}.cls-2{fill:none}</style></defs><title>Asset 9</title><g id="Layer_2" data-name="Layer 2"><g id="Layer_1-2" data-name="Layer 1"><path class="cls-1" d="M17.36 5.32A6 6 0 0 0 7.1 4.54L2 6v16l7-2 6 2 7-2V4zM12 4a4 4 0 0 1 2.82 6.84L12 13.66l-2.82-2.82A4 4 0 0 1 12 4zm8 14.47l-5 1.43-5.42-1.8-.58-.19-.59.17L4 19.34V7.5l2.1-.59a6 6 0 0 0 1.66 5.35L12 16.49l4.23-4.23a5.92 5.92 0 0 0 1.71-5L20 6.65z"></path><circle class="cls-1" cx="11.99" cy="8" r="2"></circle><path class="cls-2" d="M0 0h24v24H0z"></path></g></g></svg><svg viewBox="0 0 24 24" width="24" height="24" id="accounts" y="49"><defs><style>.cls-1{fill:#909090}.cls-2{fill:none}</style></defs><title>Asset 3</title><g id="Layer_2" data-name="Layer 2"><g id="Layer_1-2" data-name="Layer 1"><path class="cls-1" d="M22 5h-8V3H2v18h20V9zM4 5h8v2h8v2H4zm16 14H4v-8h16z"></path><path class="cls-2" d="M0 0h24v24H0z"></path></g></g></svg><svg viewBox="0 0 24 24" width="24" height="24" id="alarms" y="73"><defs><style>.cls-1{fill:#909090}.cls-2{fill:none}</style></defs><title>Asset 8</title><g id="Layer_2" data-name="Layer 2"><g id="Layer_1-2" data-name="Layer 1"><path class="cls-1" d="M18 11V8A6 6 0 1 0 6 8v3a3 3 0 0 1-3 3v5.1h5.16A4 4 0 0 0 12 22a3.86 3.86 0 0 0 3.84-2.9H21V14a2.94 2.94 0 0 1-3-3zm-7.69 8.1h3.39a2.07 2.07 0 0 1-3.39 0zm8.69-2H5v-1.6A4.3 4.3 0 0 0 8 11V8a4 4 0 1 1 8 0v3a5.28 5.28 0 0 0 3 4.6z"></path><path class="cls-2" d="M0 0h24v24H0z"></path></g></g></svg><svg viewBox="0 0 24 24" width="24" height="24" id="dashboard" y="97"><defs><style>.cls-1{fill:gray}.cls-2{fill:none}</style></defs><title>Asset 2</title><g id="Layer_2" data-name="Layer 2"><g id="Layer_1-2" data-name="Layer 1"><path class="cls-1" d="M11 22H2v-9h9zm-7-2h5v-5H4zM22 22h-9v-9h9zm-7-2h5v-5h-5zM11 11H2V2h9zM4 9h5V4H4zM22 11h-9V2h9zm-7-2h5V4h-5z"></path><path class="cls-2" d="M0 0h24v24H0z"></path></g></g></svg><svg viewBox="0 0 24 24" width="24" height="24" id="firmware" y="121"><defs><style>.cls-1{fill:none}.cls-2{fill:#909090}</style></defs><title>Asset 6</title><g id="Layer_2" data-name="Layer 2"><g id="Layer_1-2" data-name="Layer 1"><path class="cls-1" d="M0 0h24v24H0z"></path><path class="cls-2" d="M15 8.93V15H9V9h6m2-2H7l.07 10H17V6.92z"></path><path class="cls-2" transform="rotate(-.34 8.366 20.247)" d="M7.02 19.02h2.01v2.01H7.02z"></path><path class="cls-2" transform="rotate(-.34 11.736 20.257)" d="M11.03 18.99h2.01V21h-2.01z"></path><path class="cls-2" transform="rotate(-.34 16.792 20.272)" d="M15.07 18.97h2.01v2.01h-2.01z"></path><path class="cls-2" transform="rotate(-.34 8.416 3.395)" d="M6.93 3.02h2.01v2.01H6.93z"></path><path class="cls-2" transform="translate(-.02 .07)" d="M10.93 3h2.01v2.01h-2.01z"></path><path class="cls-2" transform="rotate(-.34 16.842 3.42)" d="M14.97 2.98h2.01v2.01h-2.01z"></path><path class="cls-2" transform="rotate(-90.6 19.95 15.98)" d="M19.02 14.97h2.01v2.01h-2.01z"></path><path class="cls-2" transform="rotate(-90.34 20 11.97)" d="M18.99 10.97H21v2.01h-2.01z"></path><path class="cls-2" transform="rotate(-90.34 19.972 7.931)" d="M18.97 6.93h2.01v2.01h-2.01z"></path><path class="cls-2" transform="rotate(-90.34 4.025 16.07)" d="M3.02 15.07h2.01v2.01H3.02z"></path><path class="cls-2" transform="rotate(-90.34 4.002 12.066)" d="M3 11.06h2.01v2.01H3z"></path><path class="cls-2" transform="rotate(-90.34 3.98 8.023)" d="M2.98 7.02h2.01v2.01H2.98z"></path></g></g></svg><svg viewBox="0 0 24 24" width="24" height="24" id="reports" y="145"><defs><style>.cls-1{fill:#909090}.cls-2{fill:none}</style></defs><title>Asset 5</title><g id="Layer_2" data-name="Layer 2"><g id="Layer_1-2" data-name="Layer 1"><path class="cls-1" d="M15.58 3.9l-.37-1.8h-6l-.36 1.8H4v18h16v-18zm-4.72.19h2.72l.2 1h-3.13zM18 19.9H6v-14h2.45l-.24 1.2h8L16 5.9h2z"></path><path class="cls-1" d="M8 8.9h8v2H8zM8 12.9h8v2H8z"></path><path class="cls-2" d="M0 0h24v24H0z"></path></g></g></svg><svg viewBox="0 0 24 24" width="24" height="24" id="rules" y="169"><defs><style>.cls-1{fill:#909090}.cls-2{fill:none}</style></defs><title>Asset 4</title><g id="Layer_2" data-name="Layer 2"><g id="Layer_1-2" data-name="Layer 1"><path class="cls-1" d="M19 16a3 3 0 0 0-2.81 2H6.51a2.5 2.5 0 0 1 0-5h2.7a3 3 0 0 0 5.63 0h2.7A4.44 4.44 0 0 0 22 8.51 4.41 4.41 0 0 0 17.49 4H7.82a3 3 0 1 0 0 2h9.68A2.43 2.43 0 0 1 20 8.51 2.43 2.43 0 0 1 17.52 11h-2.7a3 3 0 0 0-5.63 0H6.48a4.5 4.5 0 0 0 0 9h9.67A3 3 0 1 0 19 16zM5 6a1 1 0 1 1 1-1 1 1 0 0 1-1 1zm7 5a1 1 0 1 1-1 1 1 1 0 0 1 1-1zm7 9a1 1 0 1 1 1-1 1 1 0 0 1-1 1z"></path><path class="cls-2" d="M0 0h24v24H0z"></path></g></g></svg><svg viewBox="0 0 24 24" width="24" height="24" id="viewer" y="193"><defs><style>.cls-1{fill:#909090}.cls-2{fill:none}</style></defs><title>Asset 7</title><g id="Layer_2" data-name="Layer 2"><g id="Layer_1-2" data-name="Layer 1"><path class="cls-1" d="M18 7.94V5H2v14h16v-2.94L22 18V6zm2 5.45v1.39l-4-1.91V17H4V7h12v4.12l4-1.91v4.18z"></path><path class="cls-2" d="M0 0h24v24H0z"></path></g></g></svg></svg>