<?xml version="1.0" encoding="utf-8"?>
<!-- Generator: Adobe Illustrator 21.0.2, SVG Export Plug-In . SVG Version: 6.00 Build 0)  -->
<svg version="1.1" id="Layer_1" xmlns="http://www.w3.org/2000/svg" xmlns:xlink="http://www.w3.org/1999/xlink" x="0px" y="0px"
	 viewBox="0 0 444 58" style="enable-background:new 0 0 444 58;" xml:space="preserve">
<style type="text/css">
	.st0{fill:#606060;}
	.st1{fill:#808285;}
	.st2{fill:#EE3124;}
</style>
<rect x="220.9" y="1" class="st0" width="0.8" height="53.6"/>
<g>
	<path class="st1" d="M251.9,23.6l0.1,13.2h-2.1v-17h2.3l6.5,14.5l6.5-14.5h2.3v17h-2.1l0.1-13.2l-6,13.2h-1.7L251.9,23.6z"/>
	<path class="st1" d="M281.6,33.3h-7.8l-1.2,3.5h-2.2l5.9-17h2.7l5.9,17h-2.3L281.6,33.3z M274.5,31.5h6.5l-3.3-9.7L274.5,31.5z"/>
	<path class="st1" d="M292.9,29.8l-4.9,7h-2.4l6.1-8.7l-5.7-8.3h2.5l4.6,6.7l4.5-6.7h2.4l-5.7,8.2l6.1,8.7h-2.5L292.9,29.8z"/>
	<path class="st1" d="M303.3,19.8h6.8c3.9,0,5.8,1.9,5.8,5.3c0,3.7-2.1,5.7-6.1,5.7h-4.4v5.9h-2.2V19.8z M305.5,21.7V29h4.6
		c2.3,0,3.7-1.3,3.7-3.8c0-2.3-1.2-3.6-3.6-3.6H305.5z"/>
	<path class="st1" d="M321.8,36.8h-2.2v-17h6.7c3.8,0,5.7,1.8,5.7,5.1c0,2.7-1.2,4.4-3.3,5.1l3.6,6.8h-2.4l-3.4-6.4h-4.7V36.8z
		 M321.8,21.7v6.8h4.6c2.2,0,3.6-1.1,3.6-3.5c0-2.1-1.1-3.3-3.5-3.3H321.8z"/>
	<path class="st1" d="M335.2,28.3c0-6.2,2.5-8.7,7.6-8.7c5.3,0,7.6,2.5,7.6,8.7s-2.5,8.8-7.6,8.8C337.6,37.1,335.2,34.5,335.2,28.3z
		 M337.3,28.3c0,5.4,1.9,7,5.4,7s5.5-1.6,5.5-7.1c0-5.3-1.9-7-5.5-7S337.3,22.9,337.3,28.3z"/>
	<path class="st1" d="M359.8,28.3c0-6.3,2.6-8.7,7.6-8.7c3,0,5,0.9,6.2,3.2l-1.7,1.1c-0.9-2-2.3-2.6-4.5-2.6c-3.5,0-5.5,1.5-5.5,7
		c0,5.5,2,7.1,5.5,7.1c2.2,0,3.8-0.7,4.9-2.8l1.6,1.1c-1.4,2.5-3.5,3.5-6.5,3.5C362.4,37.1,359.8,34.6,359.8,28.3z"/>
	<path class="st1" d="M389.5,35v1.8h-12v-17h2.2V35H389.5z"/>
	<path class="st1" d="M392.1,28.3c0-6.2,2.5-8.7,7.6-8.7c5.3,0,7.6,2.5,7.6,8.7s-2.5,8.8-7.6,8.8C394.5,37.1,392.1,34.5,392.1,28.3z
		 M394.2,28.3c0,5.4,1.9,7,5.4,7s5.5-1.6,5.5-7.1c0-5.3-1.9-7-5.5-7S394.2,22.9,394.2,28.3z"/>
	<path class="st1" d="M423,19.8h2.2v10.3c0,4.6-2.6,7-6.9,7c-4.3,0-6.9-2.4-6.9-7V19.8h2.2v10.4c0,3.6,1.9,5.1,4.7,5.1
		s4.7-1.5,4.7-5.1V19.8z"/>
	<path class="st1" d="M430,36.8v-17h6.4c4.9,0,7.3,2.5,7.3,8.4c0,5.8-2.5,8.6-7.4,8.6H430z M436.3,35c3.2,0,5.3-1.6,5.3-6.7
		c0-4.9-1.9-6.6-5.1-6.6h-4.3V35H436.3z"/>
</g>
<g>
	<path d="M7.5,45.8v0.6h-3v8.2H3.8v-8.2h-3v-0.6H7.5z"/>
	<path d="M16,50.5h-5.5v4.1H9.8v-8.9h0.7v4.1H16v-4.1h0.7v8.9H16V50.5z"/>
	<path d="M20.3,45.8h6.2v0.6H21v3.5h4.8v0.6H21V54h5.6v0.6h-6.3V45.8z"/>
	<path d="M32.7,45.8H36c2,0,3,0.9,3,2.7c0,1.7-0.9,2.9-3,2.9h-2.6v3.3h-0.7V45.8z M33.4,46.4v4.4h2.7c1.3,0,2.2-0.7,2.2-2.2
		c0-1.5-0.7-2.1-2.2-2.1H33.4z"/>
	<path d="M41.3,50.2c0-3.3,1.3-4.6,3.9-4.6c2.6,0,3.9,1.3,3.9,4.6c0,3.3-1.4,4.6-3.9,4.6C42.6,54.8,41.3,53.5,41.3,50.2z M42,50.2
		c0,3,1.1,4,3.1,4c2,0,3.1-0.9,3.1-4c0-3-1.2-3.9-3.1-3.9C43.1,46.3,42,47.2,42,50.2z"/>
	<path d="M56.7,45.9l2.2,7.7l2.3-7.8h0.7l-2.7,8.9h-0.7l-2.2-7.7l-2.2,7.7h-0.7l-2.7-8.9h0.7l2.3,7.8l2.2-7.8H56.7z"/>
	<path d="M64.1,45.8h6.2v0.6h-5.5v3.5h4.8v0.6h-4.8V54h5.6v0.6h-6.3V45.8z"/>
	<path d="M73,45.8h3.3c2,0,2.9,0.9,2.9,2.6c0,1.3-0.6,2.3-1.9,2.6l2,3.6h-0.8l-1.9-3.5c-0.1,0-0.1,0-0.2,0h-2.7v3.5H73V45.8z
		 M73.7,46.4v4.1h2.7c1.3,0,2.1-0.7,2.1-2.1c0-1.4-0.7-2-2.2-2H73.7z"/>
	<path d="M85.1,50.2c0-3.3,1.3-4.6,3.9-4.6c2.6,0,3.9,1.3,3.9,4.6c0,3.3-1.4,4.6-3.9,4.6C86.4,54.8,85.1,53.5,85.1,50.2z M85.8,50.2
		c0,3,1.1,4,3.1,4c2,0,3.1-0.9,3.1-4c0-3-1.2-3.9-3.1-3.9C86.9,46.3,85.8,47.2,85.8,50.2z"/>
	<path d="M95.9,45.8h6v0.6h-5.3V50h4.7v0.6h-4.7v4.1h-0.7V45.8z"/>
	<path d="M106.9,50.2c0-3.2,1.4-4.6,4.3-4.6c1.8,0,2.9,0.6,3.5,2l-1.7,0.9c-0.4-0.9-0.9-1.2-1.9-1.2c-1.4,0-2.2,0.6-2.2,2.9
		c0,2.3,0.8,2.9,2.2,2.9c0.9,0,1.6-0.4,2-1.3l1.7,0.8c-0.6,1.4-1.8,2.1-3.7,2.1C108.3,54.8,106.9,53.4,106.9,50.2z"/>
	<path d="M116.5,50.2c0-3.1,1.4-4.6,4.3-4.6c3,0,4.3,1.5,4.3,4.6c0,3.1-1.4,4.6-4.3,4.6C117.8,54.8,116.5,53.3,116.5,50.2z
		 M118.6,50.2c0,2.2,0.7,2.9,2.2,2.9c1.5,0,2.2-0.7,2.2-2.9c0-2.2-0.7-2.9-2.2-2.9C119.4,47.3,118.6,48,118.6,50.2z"/>
	<path d="M129.5,49l0.1,5.6h-2v-8.9h1.6l4.3,5.9l-0.1-5.9h2v8.9h-1.8L129.5,49z"/>
	<path d="M140.4,49l0.1,5.6h-2v-8.9h1.6l4.3,5.9l-0.1-5.9h2v8.9h-1.8L140.4,49z"/>
	<path d="M149.3,45.8h6.8v1.6h-4.8v1.9h4.1V51h-4.1v2h4.9v1.6h-6.9V45.8z"/>
	<path d="M158,50.2c0-3.2,1.4-4.6,4.3-4.6c1.8,0,2.9,0.6,3.5,2l-1.7,0.9c-0.4-0.9-0.9-1.2-1.9-1.2c-1.4,0-2.2,0.6-2.2,2.9
		c0,2.3,0.8,2.9,2.2,2.9c0.9,0,1.6-0.4,2-1.3l1.7,0.8c-0.6,1.4-1.8,2.1-3.7,2.1C159.3,54.8,158,53.4,158,50.2z"/>
	<path d="M174.8,45.8v1.7h-2.7v7.1H170v-7.1h-2.7v-1.7H174.8z"/>
	<path d="M176.8,45.8h6.8v1.6h-4.8v1.9h4.1V51h-4.1v2h4.9v1.6h-6.9V45.8z"/>
	<path d="M186,54.7v-8.9h3.8c2.7,0,4,1.4,4,4.4c0,3-1.3,4.5-4.2,4.5H186z M189.5,53c1.4,0,2.2-0.7,2.2-2.8c0-1.9-0.7-2.7-2-2.7h-1.6
		V53H189.5z"/>
</g>
<g>
	<path class="st2" d="M16.1,29.4V16.9H9.5v12.5H0.6V1.3h8.9v11.9h6.6V1.3h8.9v28.2H16.1z"/>
	<path class="st2" d="M46.7,27.7c-2,1.7-4.7,2.5-8,2.5v-2.3c1.1,0,1.8-0.4,2.2-1.2c0.6-1.2,0.9-3.7,0.9-7.5c0-3.8-0.3-6.3-1-7.5
		c-0.4-0.7-1.1-1.1-2.1-1.1c-1,0-1.7,0.4-2.1,1.1c-0.6,1.2-0.9,3.7-0.9,7.5c0,3.8,0.3,6.3,0.9,7.5c0.4,0.8,1.1,1.2,2.2,1.2v2.3
		c-3.3,0-6-0.8-8-2.5c-2.3-1.9-3.5-4.7-3.5-8.4c0-3.5,1.1-6.2,3.2-8.2c2-1.8,4.8-2.7,8.2-2.7c3.5,0,6.2,0.9,8.3,2.7
		c2.2,1.9,3.2,4.6,3.2,8.2C50.2,22.9,49,25.8,46.7,27.7z"/>
	<path class="st2" d="M65.8,29.4v-14c0-0.7-0.1-1.3-0.4-1.8c-0.3-0.6-0.9-0.9-1.6-0.9c-0.8,0-1.5,0.2-2.1,0.6
		c-0.6,0.4-1.1,0.9-1.4,1.5v14.5h-7.8V9h7.8v3.1c0.1-0.7,0.6-1.3,1.6-2c1.2-0.9,2.8-1.4,4.8-1.4c3.2,0,5.4,1.3,6.4,4
		c0.3,0.9,0.5,1.8,0.5,2.8v13.9H65.8z"/>
	<path class="st2" d="M87,20.7v-2.9h3.3c0-2.5-0.2-4.3-0.6-5.3c-0.5-1.3-1.3-1.9-2.6-1.9c-1.4,0-2.3,0.6-2.7,1.9
		c-0.3,0.9-0.5,2.7-0.5,5.3h3V20.7h-3c0,0.3,0,0.8,0,1.4c0,1.7,0.2,2.9,0.7,3.8c0.7,1.2,2.1,1.9,4,1.9c2,0,3.6-0.5,4.5-1.5
		c0.7-0.7,1.1-1.6,1.1-2.6H98c0,1.5-0.7,2.8-2,4c-1.9,1.7-4.8,2.6-8.8,2.6c-3.4,0-6.1-0.9-8-2.7c-1.4-1.3-2.3-3-2.9-5.1
		c-0.2-1-0.4-2-0.4-3c0-1.1,0.1-2.1,0.3-3c0.5-2.1,1.4-3.8,2.8-5.1c1.9-1.8,4.6-2.7,8-2.7c3.6,0,6.4,1,8.3,2.9
		c1.4,1.4,2.3,3.3,2.7,5.6c0.2,0.9,0.2,2,0.2,3.6H87z"/>
	<path class="st2" d="M107.8,33.6c-0.3,0.9-1.1,1.7-2.1,2.4c-1.3,1-2.6,1.4-4.1,1.4c-1.4,0-2.6-0.4-3.5-1.1c-1-0.7-1.4-1.8-1.4-3.1
		c0-1.2,0.4-2.2,1.2-2.8c0.6-0.4,1.2-0.6,2-0.6c0.7,0,1.4,0.2,2.1,0.6c0.8,0.5,1.2,1.3,1.2,2.2c0,1.1-0.3,1.8-0.9,2.2
		c-0.1,0.1-0.2,0.1-0.4,0.1c0.1,0,0.2,0,0.4,0c0.7,0,1.3-0.3,2-1c0.9-0.8,1.4-1.9,1.7-3.3l0.1-1.1L98,9h8.4l4,10.6L114.6,9l3,0
		L107.8,33.6z"/>
	<path class="st2" d="M143.4,29.4h-5.8l-3.9-12.7l-3.4,12.7h-6.3l-6.3-20.5h8.2l3.4,11.8l3.2-11.8h6.5l3.4,11.9l3.2-11.9l3.2,0
		L143.4,29.4z"/>
	<path class="st2" d="M160.5,20.7v-2.9h3.3c0-2.5-0.2-4.3-0.6-5.3c-0.5-1.3-1.3-1.9-2.6-1.9c-1.4,0-2.3,0.6-2.7,1.9
		c-0.3,0.9-0.5,2.7-0.5,5.3h3V20.7h-3c0,0.3,0,0.8,0,1.4c0,1.7,0.2,2.9,0.7,3.8c0.7,1.2,2.1,1.9,4,1.9c2,0,3.6-0.5,4.5-1.5
		c0.7-0.7,1.1-1.6,1.1-2.6h3.7c0,1.5-0.7,2.8-2,4c-1.9,1.7-4.8,2.6-8.8,2.6c-3.4,0-6.1-0.9-8-2.7c-1.4-1.3-2.3-3-2.9-5.1
		c-0.2-1-0.4-2-0.4-3c0-1.1,0.1-2.1,0.3-3c0.5-2.1,1.4-3.8,2.8-5.1c1.9-1.8,4.6-2.7,8-2.7c3.6,0,6.4,1,8.3,2.9
		c1.4,1.4,2.3,3.3,2.7,5.6c0.2,0.9,0.2,2,0.2,3.6H160.5z"/>
	<path class="st2" d="M174.2,29.4V1.3h7.7v28.2H174.2z"/>
	<path class="st2" d="M185.1,29.4V1.3h7.7v28.2H185.1z"/>
</g>
</svg>
